<?xml version="1.0" encoding="utf8" standalone="no"?>
<svg viewBox="0 0 746.225 571.6375" xml:space="preserve" xmlns="http://www.w3.org/2000/svg"><defs></defs><g transform="matrix(1.25,0,0,-1.25,0,571.6375)"><g transform="scale(.24)"><path d="m2207.64,553.441c32.02-4.711 36.73-121.492 29.19-129.964-7.53-8.481-37.73,3.062-49.03,7.769-6.6-31.078 31.61-61.449 17.95-110.43-12.24-38.613 4.71-148.566 46.16-172.121 32.96,17.895 70.63,137.278 70.63,137.278s16.01-8.481 19.78-5.657c3.77,2.825-8.47,53.692-11.3,69.7-2.82,16.011 22.61,9.418 22.61,9.418s-7.54,61.218-30.15,78.171c-22.6,16.958-48.5,121.024-48.5,121.024l4.24,59.809-28.37,32.136c-3.42-52.265-27.91-61.804-43.21-97.133zm-1143.38,204.383-93.709-98.422c42.379-22.601 56.309-121.863 25.429-192.839-15.48-35.579-34.144-53.446-36.027-65.688-1.883-12.246 14.836-69.699 14.836-69.699s10.598,14.367 24.723,6.832c14.128-7.531 73.228-45.445 79.818-79.356 6.6-33.906 19.78-125.257 67.81-141.269 4.72,11.305-15.07,31.082 0,39.558s26.86-8.375 36.74-32.019c7.16-17.164 7.06-47.5665 8.47-82.1759 22.6-10.5977 211.92-12.7109 240.87,23.3086-13.42,39.5583-136.33,98.4183-136.33,98.4183l8.01,18.367c0,0-29.2,4.711-57.45,17.422-28.26,12.718-64.47,81.574-91.12,93.246-56.48,24.722-48.74,45.203-58.63,81.933-9.89,36.739 32.49,113.02 53.68,166.704 21.19,53.687 54.93,135.101 74.7,181.722l-161.82,33.957zm1165.67,1049.936c-4.82-2.61 15.39-18.64 22.92-34.65 7.53-16.02 75.17-98.73 77.22-123.38 1.88-22.6 123.38-161.5 132.8-173.75 9.42-12.24 29.2-18.85 23.55-31.09-5.65-12.25 7.28-58.29-12.5-61.12-19.78-2.82-12.93-17.53-12.93-29.77s-32.02-8.48-44.26-2.82c-35.97,16.6-32.97-16.95-66.88,9.41-33.9,26.37-154.45,83.82-181.77,104.55-27.31,20.71-49.91,9.41-49.91-14.13 0-50.87 4.13-199.55-21.66-288.2-15.08-51.81 32.97-131.86 28.25-182.72 0,0-79.11-159.164-79.11-174.227 0-15.07 98.89-76.293 98.89-76.293l32.02-12.242 64.05-40.504c0,0 12.24-53.679-36.74-105.472-48.98-51.801-47.08-124.329-66.14-154.465-19.06-30.145-11.09-39.563-16.74-49.922-16.01,4.711-60.28-3.766-82.88-16.008s-112.07-45.207-142.22-48.035c-20.71,18.836 21.66,113.965 46.15,145.039 24.5,31.086 61.22-4.703 53.69,12.246-7.53,16.957-33.91,52.738-2.83,32.027 31.08-20.718 67.81-11.3 97.01,0 29.19,11.301 50.39,107.836 47.57,120.551-2.83,12.711-50.86,29.664-84.77,40.965-33.91,11.305-115.84,40.977-153.99,50.863-38.14,9.887-200.15,6.309-302.33,8.473-118.18,2.516-309.39,29.668-364.48,31.082l-172.36,31.555-99.827-102.664c-47.094-61.219-263.243-241.106-287.262-267.95s-32.488-33.902-28.254-59.332c4.238-25.425 7.535-112.55 34.852-153.988 21.351-32.391-5.184-26.137 1.882-37.437 2.368-3.782 43.793-23.309 43.793-23.309l-18.363-2.117c0,0 117.488-85.9494 119.375-109.4885-49.398-35.4219-196.961-14.82812-243.348,2.1172 .477,36.7344 26.04,64.2383 24.141,98.6523l-34.851-30.1406c68.757,146.9256-3.766,321.1676-16.95,350.3596-13.183,29.195.938,40.5 24.489,63.101 23.539,22.606 93.234,85.711 123.378,128.094s0,106.43-21.664,142.215c-21.664,35.789-20.718,113.023 0,159.172-30.14,84.762-113.062,72.002-161.054,20.246-72.051-77.699 14.218-158.332 34.847-275.484 23.551-133.743-67.339-218.973-115.371-238.754 0,0 50.387,56.043 33.434,88.058-13.184-24.492-78.645-92.297-129.5-100.769 0,0 36.023,33.195 14.125,56.511-9.887-26.851-86.176-70.636-145.512-76.695 0,0 61.453,28.656 43.09,80.219-43.793-43.789-147.629-98.176-255-74.16 105.953-7.778 237.34,109.484 231.691,149.043 0,0-57.453-28.02-118.671-17.66 46.621,4.238 162.464,75.347 135.625,118.667-17.899-30.132-98.895-40.265-135.625-17.66 129.972-16.949 115.843,123.614 257.117,302.559 104.613,132.501 295.875,99.141 361.804,107.141 68.758,72.05 139.247,169.75 297.469,192.36 158.23,22.6 525.11,25.57 634.36,121.64l-25.94,13.99 39.56,14.13c0,0-16.96,12.24-47.09,18.83 45.21,6.59 63.1,55.57 67.81,78.17 0,0-51.8,1.89-67.81,16.95 56.51-11.3 97.01,30.14 84.77,50.86 0,0-36.74,12.72-55.57,29.67 65.46-14.13 167.88,82.88 190.48,111.84 0,0-28.96,7.06-40.96,17.66 21.89-1.41 69.93,10.36 70.86,23.54-101.71,11.3-131.62,81.71-103.59,130.92-16.95-65.93 53.68-88.54 95.12-89.48 0,0-30.14,22.6-32.02,48.03 17.9-26.37 40.49-37.67 72.52-38.61-6.59,4.71-38.61,47.09-24.49,68.75 26.38-102.65 133.5-16 212.85-49.91 13.89,10.59 32.5,48.27 45.68,61.45 13.18,13.19 40.97,30.38 40.97,30.38s-.47-71.12 16.95-76.3c17.43-5.17 57.45,4.25 64.05-32.48-12.77,12.71-41.21,21.42-39.32,4.94" fill="#231f20"></path><path d="m696.871,51.3867c-5.031-3.1094-12.086,1.8164-15.887,5.5625 1.032,3.8633 2.071,7.7149 3.102,11.5742 8.109-2.8359 17.816-14.0195 12.785-17.1367zm-28.98,30.8242c2.132,1.8868 16.308-.1601 15.777-2.1406-.672-2.4883-1.465-5.4414-2.133-7.9336-2.836,1.0274-17.461,6.8711-13.644,10.0742zm16.847-11.2734c.102.3906 4.024,11.8672 2.371,12.4492-4.804,1.6797-23.394,5.0664-23.242-2.7539 .086-4.6601 16.106-10.3711 17.059-10.7422-.129-.4961-1.949-7.2656-2.735-10.1679-1.621,1.6093-3.062,3.4882-4.336,4.4492-2.289,1.7187-4.906,2.8984-8.132,3.1797-3.231.2734-4.778-1.1719-6.391-3.0586 .598-.3946 1.27.1679 2.305.5234 8.328,2.9375 11.793-4.0469 15.781-7.9961-1.078-4-2.152-8-3.223-11.9922-5.437.9063-10.308,8-12.57,11.0039-1.262,1.6836-1.715,2.0899-1.023-.5312 2.593-9.8047 12.539-14.3906 12.539-14.3906 2.047-.7969 3.629.3632 3.804,1.0234 1.09,4.043 2.172,8.0859 3.262,12.1328 .527-.5117 9.727-13.1367 19.227-7.8945 9.5,5.2304-3.137,20.0625-14.696,24.7656" fill="#fff"></path></g></g></svg>
